<?xml version="1.0" standalone="no"?>
<!DOCTYPE svg PUBLIC "-//W3C//DTD SVG 20010904//EN"
 "http://www.w3.org/TR/2001/REC-SVG-20010904/DTD/svg10.dtd">
<svg version="1.0" xmlns="http://www.w3.org/2000/svg"
 width="576.000000pt" height="576.000000pt" viewBox="0 0 576.000000 576.000000"
 preserveAspectRatio="xMidYMid meet">
<metadata>
Created by potrace 1.14, written by Peter Selinger 2001-2017
</metadata>
<g transform="translate(0.000000,576.000000) scale(0.100000,-0.100000)"
fill="#000000" stroke="none">
<path d="M3295 5106 c-68 -32 -107 -111 -95 -192 4 -24 4 -44 0 -44 -3 0 -4
-22 0 -50 4 -27 4 -50 1 -50 -7 0 -5 -119 2 -126 2 -2 1 -22 -3 -44 -4 -21 -4
-44 0 -50 4 -6 4 -26 1 -43 -4 -18 -4 -51 -1 -74 4 -24 4 -43 0 -43 -3 0 -4
-22 0 -50 4 -27 4 -50 1 -50 -7 0 -5 -119 2 -126 2 -2 1 -22 -3 -44 -4 -21 -4
-44 1 -51 4 -7 6 -16 4 -19 -3 -6 -6 -94 -4 -130 0 -8 0 -77 -1 -153 -2 -76
-1 -140 2 -142 3 -3 2 -24 -1 -48 -3 -23 -5 -58 -3 -79 l3 -36 102 -37 c56
-20 156 -57 223 -81 67 -24 124 -44 127 -44 3 0 18 -5 34 -12 15 -6 33 -12 38
-14 24 -6 242 -86 257 -94 10 -6 26 -10 36 -10 10 0 22 -4 27 -8 6 -4 28 -14
50 -21 22 -7 49 -16 60 -21 11 -5 67 -25 125 -45 58 -20 124 -44 148 -52 24
-8 45 -13 48 -10 4 4 5 48 3 107 0 8 0 52 1 97 1 45 -1 87 -5 92 -3 6 -2 11 3
11 5 0 7 12 4 26 -3 19 -1 25 6 20 7 -4 38 -7 69 -6 32 0 67 1 78 1 11 0 58 0
105 0 82 0 159 5 190 12 274 64 475 284 505 553 8 75 11 154 4 154 -3 0 -3 23
1 50 4 28 4 50 0 50 -4 0 -4 23 0 50 4 28 4 50 0 50 -4 0 -5 12 -3 28 12 82
-58 161 -149 169 -29 2 -59 6 -65 8 -7 2 -13 1 -13 -4 0 -4 -19 -5 -42 -1 -24
3 -57 3 -75 -1 -17 -3 -37 -3 -43 1 -6 4 -29 4 -50 0 -22 -4 -42 -5 -44 -3 -7
7 -126 9 -126 2 0 -3 -22 -3 -50 1 -27 4 -50 3 -50 0 0 -7 -87 3 -94 11 -2 2
-22 41 -44 85 -69 138 -170 213 -295 220 -34 2 -63 4 -64 4 -10 4 -115 2 -119
-2 -2 -3 -22 -2 -44 2 -21 4 -44 4 -51 -1 -7 -4 -17 -6 -21 -3 -4 3 -40 4 -80
4 -86 -1 -113 -1 -152 4 -21 3 -65 40 -171 146 -78 79 -150 147 -159 152 -29
16 -109 18 -141 4z m944 -646 c36 -19 73 -78 77 -123 15 -156 -180 -238 -278
-116 -88 109 -3 270 134 255 26 -3 56 -10 67 -16z"/>
<path d="M530 3819 c-30 -10 -56 -24 -58 -29 -2 -6 -9 -10 -16 -10 -18 0 -82
-76 -108 -129 -19 -39 -22 -64 -23 -158 -1 -62 3 -113 7 -113 5 0 7 -4 4 -8
-5 -9 25 -137 44 -187 57 -149 175 -309 309 -418 32 -26 150 -97 160 -97 5 0
11 -3 13 -7 2 -5 23 -15 48 -24 l45 -16 2 -74 c2 -88 3 -168 2 -189 0 -8 0
-31 1 -50 0 -19 -1 -61 -2 -93 -2 -31 -1 -57 2 -57 3 0 4 -28 2 -62 -1 -35 -2
-110 -1 -168 0 -58 0 -114 -1 -125 -4 -93 -4 -125 1 -125 3 0 3 -20 -1 -45 -4
-25 -4 -48 0 -50 4 -3 4 -22 0 -44 -4 -22 -4 -45 1 -52 4 -7 6 -16 3 -21 -4
-6 -5 -48 -3 -108 1 -21 0 -171 -1 -195 0 -11 -2 -44 -3 -73 -1 -28 1 -52 4
-52 3 0 3 -20 -1 -45 -4 -25 -4 -48 0 -50 4 -3 4 -22 0 -44 -4 -22 -4 -45 1
-52 4 -7 6 -16 3 -21 -4 -6 -5 -50 -3 -108 0 -8 0 -62 0 -120 -2 -172 8 -206
73 -254 26 -20 42 -21 390 -24 402 -3 413 -2 459 60 38 50 37 48 38 233 0 50
1 134 2 188 1 53 -2 97 -6 97 -5 0 -6 4 -3 9 5 8 7 68 5 131 0 8 0 31 0 50 1
38 1 48 0 130 0 30 -1 60 0 65 3 125 3 247 -1 250 -2 3 -3 19 0 36 l5 31 63
-4 c35 -2 64 -1 64 2 0 3 25 5 55 5 30 0 55 -2 55 -5 0 -3 26 -4 57 -2 32 1
74 2 93 1 19 0 44 0 55 1 11 1 27 1 35 1 8 0 62 0 120 0 58 0 112 0 120 0 58
-2 102 -1 108 3 5 3 14 1 21 -3 7 -5 30 -5 52 -1 22 4 41 4 44 0 2 -4 25 -4
50 0 25 4 45 4 45 1 0 -3 24 -5 52 -4 86 4 90 4 173 4 44 1 91 0 105 -1 14 -1
70 -2 125 -3 l100 -2 6 -42 c3 -24 3 -43 0 -43 -5 0 -5 -116 0 -130 1 -3 0 -9
-1 -15 -1 -5 -1 -62 0 -125 0 -63 1 -122 1 -130 -1 -8 -1 -31 0 -50 0 -19 0
-44 0 -55 -5 -82 -5 -125 -1 -125 3 0 4 -28 2 -62 -4 -91 -2 -230 4 -239 2 -4
0 -10 -6 -14 -6 -4 -8 -10 -6 -14 3 -4 6 -29 7 -57 3 -84 39 -139 105 -164 14
-6 178 -10 375 -10 389 0 396 1 445 65 23 31 28 48 31 104 1 36 3 68 3 71 1 3
1 43 0 90 -1 47 -1 94 -1 105 5 85 5 125 1 125 -3 0 -4 26 -3 57 2 32 4 86 5
121 2 34 0 62 -3 62 -3 0 -3 23 1 50 4 28 2 50 -2 50 -5 0 -7 4 -4 9 5 8 7 68
5 131 0 15 0 73 1 120 5 164 4 220 -3 220 -5 0 -6 4 -3 9 5 8 7 70 5 131 -1
20 0 170 1 195 0 11 2 44 3 73 1 28 -1 52 -4 52 -3 0 -3 20 1 45 4 25 3 48 -2
51 -4 3 -6 10 -2 15 3 5 5 34 4 64 -1 53 -1 70 1 98 0 6 0 32 0 57 0 25 0 52
0 60 1 8 0 38 -2 65 l-2 51 -96 34 c-53 19 -98 35 -101 36 -3 0 -13 4 -22 7
-21 8 -46 16 -53 17 -3 1 -22 8 -42 17 -38 15 -200 74 -388 139 -55 19 -107
37 -115 41 -8 3 -19 7 -25 9 -5 1 -47 16 -93 33 -46 17 -102 37 -125 45 -23 8
-87 31 -142 51 -55 20 -104 38 -110 39 -12 4 -43 15 -70 26 -56 24 -128 41
-166 40 -24 0 -59 0 -78 -1 -19 0 -38 -2 -42 -5 -4 -2 -10 0 -14 6 -4 6 -10 8
-14 6 -8 -5 -45 -6 -213 -6 -47 0 -90 0 -95 -1 -4 -1 -12 -1 -18 0 -13 3 -289
3 -301 0 -5 -1 -13 -1 -19 0 -13 3 -289 3 -301 0 -5 -1 -13 -1 -19 0 -13 3
-289 3 -301 0 -5 -1 -11 -1 -14 0 -3 1 -72 2 -155 4 -137 2 -154 4 -200 27
-58 29 -128 97 -149 143 -26 60 -28 69 -41 187 -13 119 -98 223 -220 266 -46
16 -150 13 -205 -7z"/>
</g>
</svg>
